
        <svg xmlns="http://www.w3.org/2000/svg" xmlns:xlink="http://www.w3.org/1999/xlink" version="1.1" width="3300" height="2164.312322297816" viewBox="0 0 3300 2164.312322297816">
			
			<g transform="scale(15) translate(10, 10)">
				<defs id="SvgjsDefs1211"/><g id="SvgjsG1212" featureKey="symbolFeature-0" transform="matrix(0.8804976310998277,0,0,0.8804976310998277,55.97511592588469,-21.700841941599656)" fill="#000"><path xmlns="http://www.w3.org/2000/svg" d="M52.1732101,24.6461105c-11.2979431,0.0007286-20.4519291,9.157486-20.4519291,20.451931l-0.0013847,23.0057106  l43.4590988-43.4576416H52.1732101z"/><path xmlns="http://www.w3.org/2000/svg" d="M79.1626358,54.089077c-7.9887009-7.9873123-20.9384613-7.9873123-28.9243164-0.0021133L33.9706421,70.3538361  l61.4582138,0.0021133L79.1626358,54.089077z"/><path xmlns="http://www.w3.org/2000/svg" d="M17.2932701,56.6258087l11.4744453,11.4737167l0.0013828-43.3488083L17.2932701,36.2265434  C11.6606703,41.8606186,11.6620359,50.9939194,17.2932701,56.6258087z"/><path xmlns="http://www.w3.org/2000/svg" d="M4.571147,59.8163185c0,5.7429085,4.6551924,10.398098,10.3959284,10.3973656l11.6963844-0.0006561L4.5725307,48.1221008  L4.571147,59.8163185z"/></g><g id="SvgjsG1213" featureKey="nameFeature-0" transform="matrix(1.3343501400654327,0,0,1.3343501400654327,-1.945879779605003,39.422987121228545)" fill="#000"><path d="M31.717 17.324 l5.8113 0 l-18.034 24.047 l-18.036 -24.047 l5.8116 0 l12.224 16.298 z M70.569 19.299 c1.8355 1.8198 1.8204 4.452 1.7971 8.4364 c-0.0018359 0.29664 -0.0033984 0.604 -0.0046876 0.92236 c-0.0089064 2.3647 -0.015195 4.0732 -0.26344 5.514 c-0.21137 1.2284 -0.69948 2.9991 -2.4872 4.1908 c-2.2642 1.5093 -5.6464 1.5434 -13.056 1.6174 c-1.1572 0.011524 -2.2245 0.020156 -3.2091 0.020156 c-5.8708 0 -8.822 -0.31074 -10.708 -2.1844 c-1.964 -1.9514 -1.953 -4.8252 -1.9368 -9.1752 c0.018047 -4.8536 0.029024 -7.7832 2.4894 -9.602 c2.1227 -1.569 5.2056 -1.6103 11.96 -1.7011 l1.3479 -0.018555 c8.4176 -0.12031 11.902 -0.17027 14.071 1.9805 z M67.703 27.708 c0.013086 -2.2896 0.026914 -4.6576 -0.41728 -5.0976 c-0.55112 -0.54644 -3.0246 -0.67276 -6.3168 -0.67276 c-1.3547 0 -2.8484 0.021445 -4.4036 0.043672 l-1.3521 0.018555 c-4.8388 0.064884 -8.3348 0.11195 -9.25 0.78812 c-0.5776 0.42692 -0.587 2.9488 -0.59796 5.8692 c-0.010195 2.7118 -0.019883 5.2732 0.56032 5.8496 c0.9108 0.90508 5.8276 0.85564 10.583 0.80856 c5.4604 -0.054412 9.4056 -0.093908 10.516 -0.8342 c0.65372 -0.4358 0.66208 -2.7032 0.67384 -5.8416 c0.0010547 -0.32148 0.0028906 -0.632 0.0047264 -0.93176 z M107.007 30.519199999999998 c1.947 1.9611 2.9986 4.4612 2.9607 7.0404 l-0.034258 2.3474 l-4.6948 -0.06828 l0.034258 -2.3474 c0.019375 -1.3246 -0.53308 -2.5915 -1.598 -3.664 c-1.9606 -1.9747 -5.3804 -3.0414 -9.6272 -3.014 c-4.3348 0.031641 -7.7912 1.1413 -9.7316 3.1248 c-1.0183 1.0408 -1.5467 2.2692 -1.5279 3.553 l0.034258 2.3474 l-4.6948 0.06828 l-0.034024 -2.3474 c-0.036875 -2.5256 0.9812 -4.978 2.8664 -6.9048 c0.71672 -0.73296 1.6791 -1.5172 2.948 -2.2245 c-1.0944 -0.604 -2.0646 -1.3233 -2.8878 -2.1525 c-1.947 -1.9611 -2.9985 -4.4612 -2.9609 -7.0404 l0.034258 -2.3474 l4.6948 0.06828 l-0.034258 2.3474 c-0.019375 1.3246 0.53308 2.5915 1.598 3.664 c1.9603 1.9747 5.3808 3.0474 9.6268 3.014 c4.3352 -0.031641 7.7912 -1.1413 9.7316 -3.1248 c1.0183 -1.0406 1.5464 -2.2692 1.5279 -3.553 l-0.034024 -2.3474 l4.6948 -0.06828 l0.034258 2.3474 c0.036641 2.5258 -0.98144 4.978 -2.8667 6.9048 c-0.717 0.73244 -1.6788 1.5166 -2.9472 2.2237 c1.0942 0.60424 2.0639 1.3239 2.8871 2.1531 z M132.99099999999999 15.421 l18.353 24.38 l-5.9015 0 l-5.132 -6.7948 l-14.639 0 l-5.0572 6.7948 l-5.8354 0 z M129.192 28.311 l7.5966 0 l-3.7984 -5.0644 z"/></g><g id="SvgjsG1214" featureKey="sloganFeature-0" transform="matrix(0.5188381756864076,0,0,0.5188381756864076,19.356500256951012,112.04612446325046)" fill="#000"><path d="M17.998 20 l-2.9199 0 l-0.92773 -10.635 l-3.5742 10.635 l-1.8945 0 l-3.5742 -10.635 l-0.9375 10.635 l-2.9297 0 l1.1816 -14.111 l4.1797 0 l3.0078 8.8574 l3.0469 -8.8574 l4.1797 0 z M33.874980468749996 20 l-1.0254 -2.9102 l-5.9277 0 l-1.0254 2.9102 l-2.998 0 l5.1953 -14.111 l3.584 0 l5.1953 14.111 l-2.998 0 z M27.78078046875 14.6387 l4.209 0 l-2.0996 -5.9863 z M51.9972265625 5.888999999999999 l2.9199 0 l0 14.111 l-3.3887 0 l-6.25 -10.088 l0 10.088 l-2.9199 0 l0 -14.111 l3.3496 0 l6.2891 10.029 l0 -10.029 z M67.16066328125 20.19531 c-3.0957 0 -5.5176 -1.582 -5.5176 -5.1367 l0 -9.1699 l2.9297 0 l0 8.7695 c0 2.1484 1.1426 2.9492 2.5879 2.9492 c1.4551 0 2.6074 -0.81055 2.6074 -2.9492 l0 -8.7695 l2.9297 0 l0 9.1699 c0 3.5547 -2.4316 5.1367 -5.5371 5.1367 z M87.74365625 8.467 l-5.3711 0 l0 3.2031 l4.6387 0 l0 2.5488 l-4.6387 0 l0 5.7813 l-2.9492 0 l0 -14.111 l8.3203 0 l0 2.5781 z M103.05466796875 20 l-1.0254 -2.9102 l-5.9277 0 l-1.0254 2.9102 l-2.998 0 l5.1953 -14.111 l3.584 0 l5.1953 14.111 l-2.998 0 z M96.96046796875 14.6387 l4.209 0 l-2.0996 -5.9863 z M117.7881140625 20.19531 c-4.1504 0 -7.2168 -2.8223 -7.2168 -7.2559 s3.0664 -7.2461 7.2168 -7.2461 c3.1445 0 5.6641 1.6113 6.6699 4.2871 l-2.7344 0.99609 c-0.625 -1.6406 -2.1191 -2.5879 -3.9355 -2.5879 c-2.4316 0 -4.2969 1.6992 -4.2969 4.5508 s1.8652 4.5605 4.2969 4.5605 c1.8164 0 3.3105 -0.95703 3.9355 -2.5977 l2.7344 0.99609 c-1.0059 2.6758 -3.5254 4.2969 -6.6699 4.2969 z M138.41087890625 5.888999999999999 l0 2.5781 l-3.3496 0 l0 11.533 l-2.9004 0 l0 -11.533 l-3.3691 0 l0 -2.5781 l9.6191 0 z M149.21876875 20.19531 c-3.0957 0 -5.5176 -1.582 -5.5176 -5.1367 l0 -9.1699 l2.9297 0 l0 8.7695 c0 2.1484 1.1426 2.9492 2.5879 2.9492 c1.4551 0 2.6074 -0.81055 2.6074 -2.9492 l0 -8.7695 l2.9297 0 l0 9.1699 c0 3.5547 -2.4316 5.1367 -5.5371 5.1367 z M168.93306171875 20 l-3.6719 -6.2109 l-0.84961 0 l0 6.2109 l-2.9297 0 l0 -14.111 l5.1172 0 c3.1934 0 4.541 1.8848 4.541 4.2188 c0 1.8945 -1.0742 3.125 -2.9883 3.5352 l4.248 6.3574 l-3.4668 0 z M164.41166171875 8.32 l0 3.3691 l1.7285 0 c1.5625 0 2.1973 -0.66406 2.1973 -1.6797 c0 -1.0059 -0.63477 -1.6895 -2.1973 -1.6895 l-1.7285 0 z M187.3588671875 20 l-1.0254 -2.9102 l-5.9277 0 l-1.0254 2.9102 l-2.998 0 l5.1953 -14.111 l3.584 0 l5.1953 14.111 l-2.998 0 z M181.2646671875 14.6387 l4.209 0 l-2.0996 -5.9863 z M197.44381328125 23.5938 l-2.0117 0 l1.2207 -6.3867 l2.8906 0 z M219.02102421875 20.19531 c-3.0273 0 -5.3906 -1.4551 -5.8203 -4.1016 l3.0273 -0.69336 c0.19531 1.582 1.3574 2.4023 2.9102 2.4023 c1.1914 0 2.1387 -0.52734 2.1289 -1.7188 c-0.0097656 -1.3281 -1.5723 -1.748 -3.291 -2.2754 c-2.0703 -0.64453 -4.2871 -1.4063 -4.2871 -4.0039 c0 -2.627 2.1484 -4.1113 4.9805 -4.1113 c2.4805 0 4.9805 1.0059 5.5469 3.7109 l-2.832 0.70313 c-0.26367 -1.4063 -1.2109 -2.0215 -2.5391 -2.0215 c-1.1816 0 -2.1875 0.48828 -2.1875 1.6504 c0 1.084 1.3867 1.4453 2.9883 1.9238 c2.1289 0.64453 4.6484 1.4648 4.6484 4.2773 c0 2.998 -2.5098 4.2578 -5.2734 4.2578 z M230.3662390625 20 l0 -14.111 l2.9297 0 l0 14.111 l-2.9297 0 z M256.47700390625 20 l-2.9199 0 l-0.92773 -10.635 l-3.5742 10.635 l-1.8945 0 l-3.5742 -10.635 l-0.9375 10.635 l-2.9297 0 l1.1816 -14.111 l4.1797 0 l3.0078 8.8574 l3.0469 -8.8574 l4.1797 0 z M268.779284375 5.888999999999999 c2.7637 0 4.4824 2.0508 4.4824 4.5605 c0 2.5684 -1.7188 4.4922 -4.4824 4.4922 l-2.9395 0 l0 5.0586 l-2.9297 0 l0 -14.111 l5.8691 0 z M268.290984375 12.4902 c1.4648 0 2.1484 -0.81055 2.1484 -2.0801 c0 -1.2207 -0.68359 -2.0703 -2.1484 -2.0703 l-2.4512 0 l0 4.1504 l2.4512 0 z M282.01908359375 17.4121 l4.4238 0 l0 2.5879 l-7.3535 0 l0 -14.111 l2.9297 0 l0 11.523 z M300.2297265625 8.467 l-5.2344 0 l0 3.2031 l4.6387 0 l0 2.5488 l-4.6387 0 l0 3.1934 l5.2344 0 l0 2.5879 l-8.1836 0 l0 -14.111 l8.1836 0 l0 2.5781 z M308.00049765625 20.19531 c-0.86914 0 -1.6016 -0.72266 -1.6016 -1.6016 s0.73242 -1.6211 1.6016 -1.6211 c0.88867 0 1.6211 0.74219 1.6211 1.6211 s-0.73242 1.6016 -1.6211 1.6016 z"/></g>
			</g>
		</svg>
	